<?xml version="1.0" encoding="UTF-8"?>
<svg id="Capa_1" xmlns="http://www.w3.org/2000/svg" version="1.1" viewBox="0 0 512 512">
  <!-- Generator: Adobe Illustrator 29.8.2, SVG Export Plug-In . SVG Version: 2.1.1 Build 3)  -->
  <defs>
    <style>
      .st0 {
        fill: #4db6ac;
      }
    </style>
  </defs>
  <path class="st0" d="M511.32,308.29v188.99h-109.57v-176.33c0-44.27-15.82-74.51-55.49-74.51-30.28,0-48.26,20.36-56.2,40.07-2.89,7.04-3.63,16.83-3.63,26.7v184.06h-109.58s1.47-298.64,0-329.55h109.59v46.7c-.22.37-.53.73-.73,1.08h.73v-1.08c14.56-22.41,40.53-54.44,98.75-54.44,72.09,0,126.14,47.1,126.14,148.31h0ZM62.21,8.87C24.73,8.87.21,33.47.21,65.8s23.81,56.96,60.57,56.96h.71c38.22,0,61.98-25.32,61.98-56.96-.73-32.33-23.76-56.93-61.25-56.93h0ZM6.72,497.28h109.54V167.72H6.72v329.56Z"/>
</svg>