<?xml version="1.0" encoding="UTF-8"?><svg id="Capa_1" xmlns="http://www.w3.org/2000/svg" viewBox="0 0 511.11 488.41"><g opacity=".8"><path d="M511.11,299.42v188.99h-109.57v-176.33c0-44.27-15.82-74.51-55.49-74.51-30.28,0-48.26,20.36-56.2,40.07-2.89,7.04-3.63,16.83-3.63,26.7v184.06h-109.58s1.47-298.64,0-329.55h109.59v46.7c-.22.37-.53.73-.73,1.08h.73v-1.08c14.56-22.41,40.53-54.44,98.75-54.44,72.09,0,126.14,47.1,126.14,148.31h0ZM62,0C24.52,0,0,24.6,0,56.93s23.81,56.96,60.57,56.96h.71c38.22,0,61.98-25.32,61.98-56.96C122.53,24.6,99.49,0,62,0h0ZM6.51,488.41h109.54V158.86H6.51v329.56Z" fill="#fff"/></g></svg>