<?xml version="1.0" encoding="UTF-8"?><svg id="Capa_1" xmlns="http://www.w3.org/2000/svg" viewBox="0 0 512 512"><path d="M429.76,296.97v136.8h-75.91v-127.63c0-32.05-10.96-53.93-38.45-53.93-20.97,0-33.43,14.73-38.94,29-2,5.1-2.51,12.18-2.51,19.33v133.22h-75.91s1.02-216.16,0-238.53h75.92v33.8c-.15.27-.37.53-.5.78h.5v-.78c10.09-16.22,28.08-39.4,68.41-39.4,49.94,0,87.38,34.09,87.38,107.35h0ZM118.63,80.24c-25.97,0-42.96,17.81-42.96,41.21s16.5,41.23,41.96,41.23h.49c26.48,0,42.94-18.32,42.94-41.23-.5-23.4-16.46-41.21-42.43-41.21h0ZM80.19,433.76h75.89v-238.54h-75.89v238.54Z" fill="currentColor"/><path d="M446.36,0H65.64C29.39,0,0,29.39,0,65.64v380.72c0,36.25,29.39,65.64,65.64,65.64h380.72c36.25,0,65.64-29.39,65.64-65.64V65.64c0-36.25-29.39-65.64-65.64-65.64ZM471.97,442.77c0,15.96-12.94,28.9-28.9,28.9H68.91c-15.96,0-28.9-12.94-28.9-28.9V68.61c0-15.96,12.94-28.9,28.9-28.9h374.16c15.96,0,28.9,12.94,28.9,28.9v374.16Z" fill="currentColor"/></svg>