<?xml version="1.0" encoding="UTF-8"?><svg id="Capa_1" xmlns="http://www.w3.org/2000/svg" viewBox="0 0 512 512.11"><path d="M511.88,243.11C508.47,108.25,397.39,0,260.65,0S15.42,105.78,9.54,238.52c-.12,3.64-.23,7.29-.23,10.94,0,47.19,13.18,91.2,36,128.85L0,512.11l139.21-44.25c36.01,19.77,77.43,31.07,121.44,31.07,138.86,0,251.35-111.67,251.35-249.47,0-2.12,0-4.23-.12-6.35ZM260.65,459.15c-42.95,0-82.84-12.71-116.26-34.71l-81.2,25.89,26.36-77.9c-25.3-34.6-40.24-77.07-40.24-122.97,0-6.83.36-13.65,1.06-20.35,10.36-106.15,100.73-189.34,210.28-189.34s202.16,85.31,210.63,193.34c.47,5.42.71,10.83.71,16.36,0,115.67-94.84,209.69-211.34,209.69h0Z" fill="#4db6ac"/><path d="M375.85,299.82c-6.24-3.05-36.48-17.89-42.13-19.88-5.65-2.12-9.77-3.06-13.89,3.06-4.12,6.11-16,19.88-19.53,23.88-3.64,4.12-7.17,4.59-13.41,1.53-6.12-3.06-26.01-9.41-49.54-30.36-18.24-16.12-30.71-36.12-34.24-42.24-3.53-6.12-.35-9.41,2.71-12.47,2.82-2.82,6.12-7.18,9.29-10.7.83-1.06,1.53-2,2.24-2.94,1.41-2.24,2.47-4.36,3.88-7.3,2.12-4.11,1.06-7.65-.47-10.71-1.53-3.06-13.88-33.18-19.07-45.43-5.06-12.23-10.23-10.12-13.88-10.12s-7.65-.59-11.77-.59-10.83,1.53-16.48,7.64c-5.65,6.12-21.53,20.95-21.53,51.07,0,7.06,1.3,14.12,3.18,20.83,6.24,21.53,19.65,39.3,22,42.36,3.05,4,42.6,67.77,105.2,92.37,62.72,24.36,62.72,16.24,74.02,15.18,11.29-.95,36.48-14.71,41.53-29.07,5.19-14.24,5.19-26.48,3.65-29.07-1.53-2.47-5.65-4-11.76-7.06v.02Z" fill="#4db6ac"/></svg>