<?xml version="1.0" encoding="UTF-8"?>
<svg id="Capa_1" xmlns="http://www.w3.org/2000/svg" version="1.1" viewBox="0 0 329.35 141.73">
  <!-- Generator: Adobe Illustrator 29.8.2, SVG Export Plug-In . SVG Version: 2.1.1 Build 3)  -->
  <defs>
    <style>
      .st0 {
        fill: none;
      }

      .st1 {
        fill: #4db6ac;
      }

      .st2 {
        fill: #004d40;
      }
    </style>
  </defs>
  <polygon class="st2" points="157.87 141.73 113.91 14.38 109.19 14.38 109.19 141.73 92.55 141.73 92.55 0 123.77 0 162.39 109.69 166.96 109.69 205.58 0 236.8 0 236.8 141.73 220.16 141.73 220.16 14.38 215.44 14.38 171.48 141.73 157.87 141.73"/>
  <path class="st0" d="M28.68,36.36v5.13c0,15.48,7.4,23.21,22.18,23.21h40.67V13.15h-40.67c-14.79,0-22.18,7.74-22.18,23.21Z"/>
  <path class="st0" d="M277.33,64.7c14.79,0,22.18-7.73,22.18-23.21v-5.13c0-15.47-7.4-23.21-22.18-23.21h-40.53v51.56h40.53Z"/>
  <rect class="st0" x="236.66" y="13.15" width=".14" height="51.56"/>
  <path class="st2" d="M277.59,64.7c14.79,0,22.18-7.73,22.18-23.21v-5.13c0-15.47-7.4-23.21-22.18-23.21h-40.67V0h41.9c12.05,0,21.39,3.32,28.04,9.96,6.64,6.64,9.96,16.06,9.96,28.24,0,9.31-2.09,16.5-6.26,21.57-4.18,5.07-10.37,8.08-18.59,9.04v4.73c6.71.82,11.78,3.56,15.2,8.22,3.42,4.66,5.14,11.3,5.14,19.92v26.91s17.05,0,17.05,0v13.15h-33.28v-41.49c0-15.34-7.47-23.01-22.39-23.01h-36.77v-12.53h40.67Z"/>
  <polygon class="st1" points="219.87 14.24 202.82 14.24 202.82 0 236.92 0 236.92 13.15 236.92 64.7 236.92 77.23 236.92 141.73 220.48 141.73 219.87 14.24"/>
  <path class="st0" d="M52.02,64.7c-14.79,0-22.18-7.73-22.18-23.21v-5.13c0-15.47,7.4-23.21,22.18-23.21h40.53v51.56h-40.53Z"/>
  <rect class="st0" x="92.55" y="13.15" width=".14" height="51.56"/>
  <path class="st2" d="M51.76,64.7c-14.79,0-22.18-7.73-22.18-23.21v-5.13c0-15.47,7.4-23.21,22.18-23.21h40.67V0h-41.9C38.48,0,29.14,3.32,22.49,9.96c-6.64,6.64-9.96,16.06-9.96,28.24,0,9.31,2.09,16.5,6.26,21.57,4.18,5.07,10.37,8.08,18.59,9.04v4.73c-6.71.82-11.78,3.56-15.2,8.22-3.42,4.66-5.14,11.3-5.14,19.92v26.91H0v13.15h33.28v-41.49c0-15.34,7.47-23.01,22.39-23.01h36.77v-12.53h-40.67Z"/>
  <polygon class="st1" points="109.48 14.24 126.53 14.24 126.53 0 92.44 0 92.44 13.15 92.44 64.7 92.44 77.23 92.44 141.73 108.87 141.73 109.48 14.24"/>
</svg>